<svg width="512" height="512" viewBox="0 0 512 512" fill="none" xmlns="http://www.w3.org/2000/svg">
<mask id="path-1-inside-1_6_12" fill="white">
<path d="M386 256C386 327.797 327.797 386 256 386C184.203 386 126 327.797 126 256C126 184.203 184.203 126 256 126C327.797 126 386 184.203 386 256ZM167.474 256C167.474 304.892 207.108 344.526 256 344.526C304.892 344.526 344.526 304.892 344.526 256C344.526 207.108 304.892 167.474 256 167.474C207.108 167.474 167.474 207.108 167.474 256Z"/>
</mask>
<path d="M386 256C386 327.797 327.797 386 256 386C184.203 386 126 327.797 126 256C126 184.203 184.203 126 256 126C327.797 126 386 184.203 386 256ZM167.474 256C167.474 304.892 207.108 344.526 256 344.526C304.892 344.526 344.526 304.892 344.526 256C344.526 207.108 304.892 167.474 256 167.474C207.108 167.474 167.474 207.108 167.474 256Z" fill="white" stroke="white" stroke-width="2" mask="url(#path-1-inside-1_6_12)"/>
<rect x="25" y="25" width="462" height="462" rx="115" stroke="white" stroke-width="50"/>
<circle cx="394.5" cy="117.5" r="32" fill="white" stroke="white"/>
</svg>
