<svg width="68" height="100" viewBox="0 0 68 100" fill="none" xmlns="http://www.w3.org/2000/svg">
<path d="M65 24.8985V3.1C65 3.04477 64.9552 3 64.9 3H3.1C3.04477 3 3 3.04477 3 3.1V37.9976L24.9005 38.0972C24.9555 38.0974 25 38.1421 25 38.1972V58.9962H64.9C64.9552 58.9962 65 58.9514 65 58.8962V41.0974C65 41.0422 64.9552 40.9974 64.9 40.9974H37.1C37.0448 40.9974 37 40.9526 37 40.8974V25.0985C37 25.0433 37.0448 24.9985 37.1 24.9985H64.9C64.9552 24.9985 65 24.9537 65 24.8985Z" stroke="black" stroke-width="4.5"/>
<path d="M65 96.8936V79.0948C65 79.0396 64.9552 78.9948 64.9 78.9948H45.1C45.0448 78.9948 45 78.9501 45 78.8948V62.9959H21V42.0973H3V96.8936C3 96.9488 3.04477 96.9936 3.1 96.9936H64.9C64.9552 96.9936 65 96.9488 65 96.8936Z" stroke="black" stroke-width="4.5"/>
<rect x="20.4062" y="63.2021" width="23.8" height="33.7977" fill="black"/>
<rect x="42.1875" y="78.3896" width="22.2" height="18.5987" fill="black"/>
<rect x="3" y="43" width="21" height="54" fill="black"/>
</svg>
