<svg width="688" height="157" viewBox="0 0 688 157" fill="none" xmlns="http://www.w3.org/2000/svg">
<rect x="3" y="30" width="34" height="58" fill="white"/>
<rect x="26" y="30" width="39" height="20" fill="white"/>
<rect x="26" y="67" width="39" height="20" fill="white"/>
<path d="M65 51.8985V30.1C65 30.0448 64.9552 30 64.9 30H3.1C3.04477 30 3 30.0448 3 30.1V64.9976L24.9005 65.0972C24.9555 65.0974 25 65.1421 25 65.1972V85.9962H64.9C64.9552 85.9962 65 85.9514 65 85.8962V68.0974C65 68.0422 64.9552 67.9974 64.9 67.9974H37.1C37.0448 67.9974 37 67.9526 37 67.8974V52.0985C37 52.0433 37.0448 51.9985 37.1 51.9985H64.9C64.9552 51.9985 65 51.9537 65 51.8985Z" stroke="black" stroke-width="4.5"/>
<path d="M65 123.894V106.095C65 106.04 64.9552 105.995 64.9 105.995H45.1C45.0448 105.995 45 105.95 45 105.895V89.9959H21V69.0973H3V123.894C3 123.949 3.04477 123.994 3.1 123.994H64.9C64.9552 123.994 65 123.949 65 123.894Z" stroke="black" stroke-width="4.5"/>
<rect x="20.4062" y="90.2024" width="23.8" height="33.7977" fill="black"/>
<rect x="42.1875" y="105.39" width="22.2" height="18.5987" fill="black"/>
<rect x="3" y="70" width="21" height="54" fill="black"/>
<path d="M81.3098 126V55.0909H102.776V68.1094H103.561C105.039 63.8007 107.531 60.3999 111.04 57.907C114.548 55.4141 118.734 54.1676 123.597 54.1676C128.521 54.1676 132.737 55.4295 136.246 57.9531C139.754 60.4768 141.986 63.8622 142.94 68.1094H143.678C145.002 63.893 147.587 60.523 151.434 57.9993C155.281 55.4448 159.821 54.1676 165.053 54.1676C171.762 54.1676 177.209 56.322 181.395 60.6307C185.581 64.9086 187.673 70.7869 187.673 78.2656V126H165.099V83.4361C165.099 79.8968 164.191 77.2038 162.375 75.3572C160.559 73.4799 158.205 72.5412 155.312 72.5412C152.204 72.5412 149.757 73.5568 147.972 75.5881C146.218 77.5885 145.34 80.2815 145.34 83.6669V126H123.643V83.2053C123.643 79.9122 122.75 77.3116 120.965 75.4034C119.18 73.4953 116.826 72.5412 113.902 72.5412C111.932 72.5412 110.194 73.0182 108.686 73.9723C107.177 74.8956 105.993 76.219 105.131 77.9425C104.3 79.666 103.884 81.6972 103.884 84.0362V126H81.3098ZM201.661 152.591V55.0909H224.005V67.2322H224.698C225.621 65.0779 226.929 63.0005 228.622 61C230.345 58.9995 232.53 57.3684 235.177 56.1065C237.855 54.8139 241.055 54.1676 244.779 54.1676C249.704 54.1676 254.305 55.4602 258.583 58.0454C262.891 60.6307 266.369 64.6162 269.016 70.0021C271.663 75.388 272.986 82.2512 272.986 90.5916C272.986 98.6243 271.709 105.349 269.154 110.766C266.631 116.182 263.214 120.245 258.906 122.953C254.628 125.661 249.873 127.016 244.641 127.016C241.071 127.016 237.978 126.431 235.362 125.261C232.746 124.092 230.545 122.553 228.76 120.645C227.006 118.737 225.652 116.69 224.698 114.505H224.236V152.591H201.661ZM223.774 90.5455C223.774 94.3617 224.282 97.6856 225.298 100.517C226.344 103.348 227.837 105.549 229.776 107.119C231.745 108.657 234.1 109.427 236.839 109.427C239.609 109.427 241.963 108.657 243.902 107.119C245.841 105.549 247.303 103.348 248.288 100.517C249.303 97.6856 249.811 94.3617 249.811 90.5455C249.811 86.7292 249.303 83.4207 248.288 80.62C247.303 77.8194 245.841 75.6496 243.902 74.1108C241.994 72.572 239.64 71.8026 236.839 71.8026C234.069 71.8026 231.715 72.5566 229.776 74.0646C227.837 75.5727 226.344 77.727 225.298 80.5277C224.282 83.3284 223.774 86.6676 223.774 90.5455ZM284.816 126V55.0909H306.744V68.017H307.483C308.775 63.339 310.883 59.8613 313.807 57.5838C316.731 55.2756 320.132 54.1214 324.01 54.1214C325.056 54.1214 326.133 54.1984 327.241 54.3523C328.349 54.4754 329.38 54.6754 330.334 54.9524V74.5724C329.257 74.2031 327.841 73.9107 326.087 73.6953C324.364 73.4799 322.825 73.3722 321.471 73.3722C318.793 73.3722 316.377 73.9723 314.223 75.1726C312.099 76.3421 310.422 77.9886 309.191 80.1122C307.99 82.205 307.39 84.6671 307.39 87.4986V126H284.816ZM368.997 127.339C361.58 127.339 355.179 125.877 349.793 122.953C344.438 119.999 340.313 115.798 337.42 110.35C334.558 104.872 333.127 98.3627 333.127 90.8224C333.127 83.4976 334.574 77.0961 337.467 71.6179C340.36 66.1089 344.438 61.831 349.7 58.7841C354.963 55.7064 361.165 54.1676 368.305 54.1676C373.352 54.1676 377.969 54.9524 382.154 56.522C386.34 58.0916 389.956 60.4152 393.003 63.4929C396.05 66.5705 398.42 70.3714 400.112 74.8956C401.805 79.389 402.651 84.544 402.651 90.3608V95.9929H341.021V82.8821H381.646C381.616 80.4815 381.046 78.3426 379.938 76.4652C378.83 74.5878 377.307 73.1259 375.368 72.0795C373.46 71.0024 371.259 70.4638 368.766 70.4638C366.243 70.4638 363.981 71.0331 361.98 72.1719C359.98 73.2798 358.395 74.8033 357.225 76.7422C356.056 78.6503 355.44 80.8201 355.379 83.2514V96.593C355.379 99.486 355.948 102.025 357.087 104.21C358.225 106.365 359.841 108.042 361.934 109.242C364.027 110.442 366.52 111.043 369.413 111.043C371.413 111.043 373.229 110.766 374.86 110.212C376.491 109.658 377.892 108.842 379.061 107.765C380.231 106.688 381.108 105.364 381.692 103.795L402.42 104.395C401.559 109.042 399.666 113.089 396.742 116.536C393.849 119.952 390.048 122.615 385.339 124.523C380.631 126.4 375.183 127.339 368.997 127.339ZM447.327 127.339C439.91 127.339 433.509 125.877 428.123 122.953C422.768 119.999 418.644 115.798 415.751 110.35C412.888 104.872 411.457 98.3627 411.457 90.8224C411.457 83.4976 412.904 77.0961 415.797 71.6179C418.69 66.1089 422.768 61.831 428.03 58.7841C433.293 55.7064 439.495 54.1676 446.635 54.1676C451.682 54.1676 456.299 54.9524 460.484 56.522C464.67 58.0916 468.286 60.4152 471.333 63.4929C474.38 66.5705 476.75 70.3714 478.442 74.8956C480.135 79.389 480.981 84.544 480.981 90.3608V95.9929H419.351V82.8821H459.976C459.946 80.4815 459.376 78.3426 458.268 76.4652C457.16 74.5878 455.637 73.1259 453.698 72.0795C451.79 71.0024 449.589 70.4638 447.096 70.4638C444.573 70.4638 442.311 71.0331 440.31 72.1719C438.31 73.2798 436.725 74.8033 435.555 76.7422C434.386 78.6503 433.77 80.8201 433.709 83.2514V96.593C433.709 99.486 434.278 102.025 435.417 104.21C436.555 106.365 438.171 108.042 440.264 109.242C442.357 110.442 444.85 111.043 447.743 111.043C449.743 111.043 451.559 110.766 453.19 110.212C454.821 109.658 456.222 108.842 457.391 107.765C458.561 106.688 459.438 105.364 460.023 103.795L480.751 104.395C479.889 109.042 477.996 113.089 475.072 116.536C472.179 119.952 468.378 122.615 463.67 124.523C458.961 126.4 453.513 127.339 447.327 127.339ZM515.086 85.5597V126H492.511V55.0909H513.978V68.1094H514.762C516.332 63.7699 519.01 60.3691 522.795 57.907C526.581 55.4141 531.089 54.1676 536.321 54.1676C541.307 54.1676 545.631 55.291 549.294 57.5376C552.987 59.7535 555.849 62.862 557.88 66.8629C559.942 70.8331 560.958 75.4803 560.927 80.8047V126H538.353V85.2365C538.383 81.2971 537.383 78.2195 535.352 76.0035C533.351 73.7876 530.566 72.6797 526.996 72.6797C524.626 72.6797 522.533 73.2029 520.718 74.2493C518.933 75.2649 517.548 76.7268 516.563 78.6349C515.609 80.5431 515.116 82.8513 515.086 85.5597ZM600.802 127.016C595.57 127.016 590.815 125.661 586.537 122.953C582.259 120.245 578.843 116.182 576.289 110.766C573.734 105.349 572.457 98.6243 572.457 90.5916C572.457 82.2512 573.78 75.388 576.427 70.0021C579.074 64.6162 582.536 60.6307 586.814 58.0454C591.123 55.4602 595.755 54.1676 600.71 54.1676C604.434 54.1676 607.619 54.8139 610.266 56.1065C612.913 57.3684 615.098 58.9995 616.821 61C618.545 63.0005 619.853 65.0779 620.745 67.2322H621.207V31.4545H643.781V126H621.438V114.505H620.745C619.791 116.69 618.437 118.737 616.683 120.645C614.928 122.553 612.728 124.092 610.081 125.261C607.465 126.431 604.372 127.016 600.802 127.016ZM608.65 109.427C611.389 109.427 613.728 108.657 615.667 107.119C617.606 105.549 619.099 103.348 620.145 100.517C621.191 97.6856 621.715 94.3617 621.715 90.5455C621.715 86.6676 621.191 83.3284 620.145 80.5277C619.129 77.727 617.637 75.5727 615.667 74.0646C613.728 72.5566 611.389 71.8026 608.65 71.8026C605.849 71.8026 603.48 72.572 601.541 74.1108C599.602 75.6496 598.124 77.8194 597.109 80.62C596.124 83.4207 595.632 86.7292 595.632 90.5455C595.632 94.3617 596.139 97.6856 597.155 100.517C598.171 103.348 599.633 105.549 601.541 107.119C603.48 108.657 605.849 109.427 608.65 109.427ZM658.058 126V55.0909H680.632V126H658.058ZM669.368 46.8274C666.198 46.8274 663.475 45.781 661.197 43.6882C658.92 41.5646 657.781 39.0102 657.781 36.0249C657.781 33.0703 658.92 30.5466 661.197 28.4538C663.475 26.3303 666.198 25.2685 669.368 25.2685C672.569 25.2685 675.293 26.3303 677.539 28.4538C679.817 30.5466 680.956 33.0703 680.956 36.0249C680.956 39.0102 679.817 41.5646 677.539 43.6882C675.293 45.781 672.569 46.8274 669.368 46.8274Z" fill="black"/>
</svg>
