<svg width="319" height="321" viewBox="0 0 319 321" fill="none" xmlns="http://www.w3.org/2000/svg">
<path d="M159.18 7.5C243.012 7.5 310.859 76.0389 310.859 160.447C310.859 244.856 243.012 313.395 159.18 313.395C75.3476 313.395 7.5 244.856 7.5 160.447C7.5 76.0389 75.3476 7.5 159.18 7.5Z" fill="white" stroke="white" stroke-width="15"/>
<circle cx="159" cy="111" r="39.5" fill="black" stroke="white"/>
<mask id="path-3-inside-1_1_134" fill="white">
<path d="M224 235C229.523 235 234.069 230.503 233.335 225.029C231.16 208.819 223.727 193.661 212.033 181.967C197.968 167.902 178.891 160 159 160C139.109 160 120.032 167.902 105.967 181.967C94.2731 193.661 86.8396 208.819 84.6655 225.029C83.9313 230.503 88.4772 235 94 235L159 235H224Z"/>
</mask>
<path d="M224 235C229.523 235 234.069 230.503 233.335 225.029C231.16 208.819 223.727 193.661 212.033 181.967C197.968 167.902 178.891 160 159 160C139.109 160 120.032 167.902 105.967 181.967C94.2731 193.661 86.8396 208.819 84.6655 225.029C83.9313 230.503 88.4772 235 94 235L159 235H224Z" fill="black" stroke="white" stroke-width="2" mask="url(#path-3-inside-1_1_134)"/>
</svg>
