<svg width="319" height="321" viewBox="0 0 319 321" fill="none" xmlns="http://www.w3.org/2000/svg">
<path d="M159.18 7.5C243.012 7.5 310.859 76.0389 310.859 160.447C310.859 244.856 243.012 313.395 159.18 313.395C75.3476 313.395 7.5 244.856 7.5 160.447C7.5 76.0389 75.3476 7.5 159.18 7.5Z" fill="black" stroke="black" stroke-width="15"/>
<rect x="92.4453" y="59.0498" width="111.224" height="185.341" rx="10" fill="white"/>
<rect x="136.935" y="135.514" width="111.224" height="108.878" rx="10" fill="white"/>
<rect width="177.959" height="19.9471" rx="9.97353" transform="matrix(1 0 0 -1 81.7344 255.195)" fill="white"/>
<rect x="112" y="83.1523" width="24.7165" height="24.9338" rx="2" fill="black"/>
<rect x="159" y="83.1523" width="24.7165" height="24.9338" rx="2" fill="black"/>
<rect x="112" y="134.002" width="24.7165" height="24.9338" rx="2" fill="black"/>
<rect x="112" y="185.001" width="24.7165" height="24.9338" rx="2" fill="black"/>
<rect x="159" y="185.001" width="24.7165" height="24.9338" rx="2" fill="black"/>
<rect x="159" y="134.002" width="24.7165" height="24.9338" rx="2" fill="black"/>
</svg>
