<svg width="688" height="157" viewBox="0 0 688 157" fill="none" xmlns="http://www.w3.org/2000/svg">
<rect x="2" y="30" width="34" height="58" fill="black"/>
<rect x="25" y="30" width="39" height="20" fill="black"/>
<rect x="25" y="67" width="39" height="20" fill="black"/>
<path d="M65 51.8985V30.1C65 30.0448 64.9552 30 64.9 30H3.1C3.04477 30 3 30.0448 3 30.1V64.9976L24.9005 65.0972C24.9555 65.0974 25 65.1421 25 65.1972V85.9962H64.9C64.9552 85.9962 65 85.9514 65 85.8962V68.0974C65 68.0422 64.9552 67.9974 64.9 67.9974H37.1C37.0448 67.9974 37 67.9526 37 67.8974V52.0985C37 52.0433 37.0448 51.9985 37.1 51.9985H64.9C64.9552 51.9985 65 51.9537 65 51.8985Z" stroke="white" stroke-width="4.5"/>
<path d="M65 123.894V106.095C65 106.04 64.9552 105.995 64.9 105.995H45.1C45.0448 105.995 45 105.95 45 105.895V89.9959H21V69.0973H3V123.894C3 123.949 3.04477 123.994 3.1 123.994H64.9C64.9552 123.994 65 123.949 65 123.894Z" stroke="white" stroke-width="4.5"/>
<rect x="22.9062" y="92.7024" width="18.8" height="28.7977" fill="white" stroke="white" stroke-width="5"/>
<rect x="44.6875" y="107.89" width="17.2" height="13.5987" fill="white" stroke="white" stroke-width="5"/>
<rect x="3.5" y="70.5" width="20" height="53" fill="white" stroke="white"/>
<mask id="path-8-outside-1_98_336" maskUnits="userSpaceOnUse" x="80" y="24" width="602" height="130" fill="black">
<rect fill="white" x="80" y="24" width="602" height="130"/>
<path d="M81.3098 126V55.0909H102.776V68.1094H103.561C105.039 63.8007 107.531 60.3999 111.04 57.907C114.548 55.4141 118.734 54.1676 123.597 54.1676C128.521 54.1676 132.737 55.4295 136.246 57.9531C139.754 60.4768 141.986 63.8622 142.94 68.1094H143.678C145.002 63.893 147.587 60.523 151.434 57.9993C155.281 55.4448 159.821 54.1676 165.053 54.1676C171.762 54.1676 177.209 56.322 181.395 60.6307C185.581 64.9086 187.673 70.7869 187.673 78.2656V126H165.099V83.4361C165.099 79.8968 164.191 77.2038 162.375 75.3572C160.559 73.4799 158.205 72.5412 155.312 72.5412C152.204 72.5412 149.757 73.5568 147.972 75.5881C146.218 77.5885 145.34 80.2815 145.34 83.6669V126H123.643V83.2053C123.643 79.9122 122.75 77.3116 120.965 75.4034C119.18 73.4953 116.826 72.5412 113.902 72.5412C111.932 72.5412 110.194 73.0182 108.686 73.9723C107.177 74.8956 105.993 76.219 105.131 77.9425C104.3 79.666 103.884 81.6972 103.884 84.0362V126H81.3098ZM201.661 152.591V55.0909H224.005V67.2322H224.698C225.621 65.0779 226.929 63.0005 228.622 61C230.345 58.9995 232.53 57.3684 235.177 56.1065C237.855 54.8139 241.055 54.1676 244.779 54.1676C249.704 54.1676 254.305 55.4602 258.583 58.0454C262.891 60.6307 266.369 64.6162 269.016 70.0021C271.663 75.388 272.986 82.2512 272.986 90.5916C272.986 98.6243 271.709 105.349 269.154 110.766C266.631 116.182 263.214 120.245 258.906 122.953C254.628 125.661 249.873 127.016 244.641 127.016C241.071 127.016 237.978 126.431 235.362 125.261C232.746 124.092 230.545 122.553 228.76 120.645C227.006 118.737 225.652 116.69 224.698 114.505H224.236V152.591H201.661ZM223.774 90.5455C223.774 94.3617 224.282 97.6856 225.298 100.517C226.344 103.348 227.837 105.549 229.776 107.119C231.745 108.657 234.1 109.427 236.839 109.427C239.609 109.427 241.963 108.657 243.902 107.119C245.841 105.549 247.303 103.348 248.288 100.517C249.303 97.6856 249.811 94.3617 249.811 90.5455C249.811 86.7292 249.303 83.4207 248.288 80.62C247.303 77.8194 245.841 75.6496 243.902 74.1108C241.994 72.572 239.64 71.8026 236.839 71.8026C234.069 71.8026 231.715 72.5566 229.776 74.0646C227.837 75.5727 226.344 77.727 225.298 80.5277C224.282 83.3284 223.774 86.6676 223.774 90.5455ZM284.816 126V55.0909H306.744V68.017H307.483C308.775 63.339 310.883 59.8613 313.807 57.5838C316.731 55.2756 320.132 54.1214 324.01 54.1214C325.056 54.1214 326.133 54.1984 327.241 54.3523C328.349 54.4754 329.38 54.6754 330.334 54.9524V74.5724C329.257 74.2031 327.841 73.9107 326.087 73.6953C324.364 73.4799 322.825 73.3722 321.471 73.3722C318.793 73.3722 316.377 73.9723 314.223 75.1726C312.099 76.3421 310.422 77.9886 309.191 80.1122C307.99 82.205 307.39 84.6671 307.39 87.4986V126H284.816ZM368.997 127.339C361.58 127.339 355.179 125.877 349.793 122.953C344.438 119.999 340.313 115.798 337.42 110.35C334.558 104.872 333.127 98.3627 333.127 90.8224C333.127 83.4976 334.574 77.0961 337.467 71.6179C340.36 66.1089 344.438 61.831 349.7 58.7841C354.963 55.7064 361.165 54.1676 368.305 54.1676C373.352 54.1676 377.969 54.9524 382.154 56.522C386.34 58.0916 389.956 60.4152 393.003 63.4929C396.05 66.5705 398.42 70.3714 400.112 74.8956C401.805 79.389 402.651 84.544 402.651 90.3608V95.9929H341.021V82.8821H381.646C381.616 80.4815 381.046 78.3426 379.938 76.4652C378.83 74.5878 377.307 73.1259 375.368 72.0795C373.46 71.0024 371.259 70.4638 368.766 70.4638C366.243 70.4638 363.981 71.0331 361.98 72.1719C359.98 73.2798 358.395 74.8033 357.225 76.7422C356.056 78.6503 355.44 80.8201 355.379 83.2514V96.593C355.379 99.486 355.948 102.025 357.087 104.21C358.225 106.365 359.841 108.042 361.934 109.242C364.027 110.442 366.52 111.043 369.413 111.043C371.413 111.043 373.229 110.766 374.86 110.212C376.491 109.658 377.892 108.842 379.061 107.765C380.231 106.688 381.108 105.364 381.692 103.795L402.42 104.395C401.559 109.042 399.666 113.089 396.742 116.536C393.849 119.952 390.048 122.615 385.339 124.523C380.631 126.4 375.183 127.339 368.997 127.339ZM447.327 127.339C439.91 127.339 433.509 125.877 428.123 122.953C422.768 119.999 418.644 115.798 415.751 110.35C412.888 104.872 411.457 98.3627 411.457 90.8224C411.457 83.4976 412.904 77.0961 415.797 71.6179C418.69 66.1089 422.768 61.831 428.03 58.7841C433.293 55.7064 439.495 54.1676 446.635 54.1676C451.682 54.1676 456.299 54.9524 460.484 56.522C464.67 58.0916 468.286 60.4152 471.333 63.4929C474.38 66.5705 476.75 70.3714 478.442 74.8956C480.135 79.389 480.981 84.544 480.981 90.3608V95.9929H419.351V82.8821H459.976C459.946 80.4815 459.376 78.3426 458.268 76.4652C457.16 74.5878 455.637 73.1259 453.698 72.0795C451.79 71.0024 449.589 70.4638 447.096 70.4638C444.573 70.4638 442.311 71.0331 440.31 72.1719C438.31 73.2798 436.725 74.8033 435.555 76.7422C434.386 78.6503 433.77 80.8201 433.709 83.2514V96.593C433.709 99.486 434.278 102.025 435.417 104.21C436.555 106.365 438.171 108.042 440.264 109.242C442.357 110.442 444.85 111.043 447.743 111.043C449.743 111.043 451.559 110.766 453.19 110.212C454.821 109.658 456.222 108.842 457.391 107.765C458.561 106.688 459.438 105.364 460.023 103.795L480.751 104.395C479.889 109.042 477.996 113.089 475.072 116.536C472.179 119.952 468.378 122.615 463.67 124.523C458.961 126.4 453.513 127.339 447.327 127.339ZM515.086 85.5597V126H492.511V55.0909H513.978V68.1094H514.762C516.332 63.7699 519.01 60.3691 522.795 57.907C526.581 55.4141 531.089 54.1676 536.321 54.1676C541.307 54.1676 545.631 55.291 549.294 57.5376C552.987 59.7535 555.849 62.862 557.88 66.8629C559.942 70.8331 560.958 75.4803 560.927 80.8047V126H538.353V85.2365C538.383 81.2971 537.383 78.2195 535.352 76.0035C533.351 73.7876 530.566 72.6797 526.996 72.6797C524.626 72.6797 522.533 73.2029 520.718 74.2493C518.933 75.2649 517.548 76.7268 516.563 78.6349C515.609 80.5431 515.116 82.8513 515.086 85.5597ZM600.802 127.016C595.57 127.016 590.815 125.661 586.537 122.953C582.259 120.245 578.843 116.182 576.289 110.766C573.734 105.349 572.457 98.6243 572.457 90.5916C572.457 82.2512 573.78 75.388 576.427 70.0021C579.074 64.6162 582.536 60.6307 586.814 58.0454C591.123 55.4602 595.755 54.1676 600.71 54.1676C604.434 54.1676 607.619 54.8139 610.266 56.1065C612.913 57.3684 615.098 58.9995 616.821 61C618.545 63.0005 619.853 65.0779 620.745 67.2322H621.207V31.4545H643.781V126H621.438V114.505H620.745C619.791 116.69 618.437 118.737 616.683 120.645C614.928 122.553 612.728 124.092 610.081 125.261C607.465 126.431 604.372 127.016 600.802 127.016ZM608.65 109.427C611.389 109.427 613.728 108.657 615.667 107.119C617.606 105.549 619.099 103.348 620.145 100.517C621.191 97.6856 621.715 94.3617 621.715 90.5455C621.715 86.6676 621.191 83.3284 620.145 80.5277C619.129 77.727 617.637 75.5727 615.667 74.0646C613.728 72.5566 611.389 71.8026 608.65 71.8026C605.849 71.8026 603.48 72.572 601.541 74.1108C599.602 75.6496 598.124 77.8194 597.109 80.62C596.124 83.4207 595.632 86.7292 595.632 90.5455C595.632 94.3617 596.139 97.6856 597.155 100.517C598.171 103.348 599.633 105.549 601.541 107.119C603.48 108.657 605.849 109.427 608.65 109.427ZM658.058 126V55.0909H680.632V126H658.058ZM669.368 46.8274C666.198 46.8274 663.475 45.781 661.197 43.6882C658.92 41.5646 657.781 39.0102 657.781 36.0249C657.781 33.0703 658.92 30.5466 661.197 28.4538C663.475 26.3303 666.198 25.2685 669.368 25.2685C672.569 25.2685 675.293 26.3303 677.539 28.4538C679.817 30.5466 680.956 33.0703 680.956 36.0249C680.956 39.0102 679.817 41.5646 677.539 43.6882C675.293 45.781 672.569 46.8274 669.368 46.8274Z"/>
</mask>
<path d="M81.3098 126V55.0909H102.776V68.1094H103.561C105.039 63.8007 107.531 60.3999 111.04 57.907C114.548 55.4141 118.734 54.1676 123.597 54.1676C128.521 54.1676 132.737 55.4295 136.246 57.9531C139.754 60.4768 141.986 63.8622 142.94 68.1094H143.678C145.002 63.893 147.587 60.523 151.434 57.9993C155.281 55.4448 159.821 54.1676 165.053 54.1676C171.762 54.1676 177.209 56.322 181.395 60.6307C185.581 64.9086 187.673 70.7869 187.673 78.2656V126H165.099V83.4361C165.099 79.8968 164.191 77.2038 162.375 75.3572C160.559 73.4799 158.205 72.5412 155.312 72.5412C152.204 72.5412 149.757 73.5568 147.972 75.5881C146.218 77.5885 145.34 80.2815 145.34 83.6669V126H123.643V83.2053C123.643 79.9122 122.75 77.3116 120.965 75.4034C119.18 73.4953 116.826 72.5412 113.902 72.5412C111.932 72.5412 110.194 73.0182 108.686 73.9723C107.177 74.8956 105.993 76.219 105.131 77.9425C104.3 79.666 103.884 81.6972 103.884 84.0362V126H81.3098ZM201.661 152.591V55.0909H224.005V67.2322H224.698C225.621 65.0779 226.929 63.0005 228.622 61C230.345 58.9995 232.53 57.3684 235.177 56.1065C237.855 54.8139 241.055 54.1676 244.779 54.1676C249.704 54.1676 254.305 55.4602 258.583 58.0454C262.891 60.6307 266.369 64.6162 269.016 70.0021C271.663 75.388 272.986 82.2512 272.986 90.5916C272.986 98.6243 271.709 105.349 269.154 110.766C266.631 116.182 263.214 120.245 258.906 122.953C254.628 125.661 249.873 127.016 244.641 127.016C241.071 127.016 237.978 126.431 235.362 125.261C232.746 124.092 230.545 122.553 228.76 120.645C227.006 118.737 225.652 116.69 224.698 114.505H224.236V152.591H201.661ZM223.774 90.5455C223.774 94.3617 224.282 97.6856 225.298 100.517C226.344 103.348 227.837 105.549 229.776 107.119C231.745 108.657 234.1 109.427 236.839 109.427C239.609 109.427 241.963 108.657 243.902 107.119C245.841 105.549 247.303 103.348 248.288 100.517C249.303 97.6856 249.811 94.3617 249.811 90.5455C249.811 86.7292 249.303 83.4207 248.288 80.62C247.303 77.8194 245.841 75.6496 243.902 74.1108C241.994 72.572 239.64 71.8026 236.839 71.8026C234.069 71.8026 231.715 72.5566 229.776 74.0646C227.837 75.5727 226.344 77.727 225.298 80.5277C224.282 83.3284 223.774 86.6676 223.774 90.5455ZM284.816 126V55.0909H306.744V68.017H307.483C308.775 63.339 310.883 59.8613 313.807 57.5838C316.731 55.2756 320.132 54.1214 324.01 54.1214C325.056 54.1214 326.133 54.1984 327.241 54.3523C328.349 54.4754 329.38 54.6754 330.334 54.9524V74.5724C329.257 74.2031 327.841 73.9107 326.087 73.6953C324.364 73.4799 322.825 73.3722 321.471 73.3722C318.793 73.3722 316.377 73.9723 314.223 75.1726C312.099 76.3421 310.422 77.9886 309.191 80.1122C307.99 82.205 307.39 84.6671 307.39 87.4986V126H284.816ZM368.997 127.339C361.58 127.339 355.179 125.877 349.793 122.953C344.438 119.999 340.313 115.798 337.42 110.35C334.558 104.872 333.127 98.3627 333.127 90.8224C333.127 83.4976 334.574 77.0961 337.467 71.6179C340.36 66.1089 344.438 61.831 349.7 58.7841C354.963 55.7064 361.165 54.1676 368.305 54.1676C373.352 54.1676 377.969 54.9524 382.154 56.522C386.34 58.0916 389.956 60.4152 393.003 63.4929C396.05 66.5705 398.42 70.3714 400.112 74.8956C401.805 79.389 402.651 84.544 402.651 90.3608V95.9929H341.021V82.8821H381.646C381.616 80.4815 381.046 78.3426 379.938 76.4652C378.83 74.5878 377.307 73.1259 375.368 72.0795C373.46 71.0024 371.259 70.4638 368.766 70.4638C366.243 70.4638 363.981 71.0331 361.98 72.1719C359.98 73.2798 358.395 74.8033 357.225 76.7422C356.056 78.6503 355.44 80.8201 355.379 83.2514V96.593C355.379 99.486 355.948 102.025 357.087 104.21C358.225 106.365 359.841 108.042 361.934 109.242C364.027 110.442 366.52 111.043 369.413 111.043C371.413 111.043 373.229 110.766 374.86 110.212C376.491 109.658 377.892 108.842 379.061 107.765C380.231 106.688 381.108 105.364 381.692 103.795L402.42 104.395C401.559 109.042 399.666 113.089 396.742 116.536C393.849 119.952 390.048 122.615 385.339 124.523C380.631 126.4 375.183 127.339 368.997 127.339ZM447.327 127.339C439.91 127.339 433.509 125.877 428.123 122.953C422.768 119.999 418.644 115.798 415.751 110.35C412.888 104.872 411.457 98.3627 411.457 90.8224C411.457 83.4976 412.904 77.0961 415.797 71.6179C418.69 66.1089 422.768 61.831 428.03 58.7841C433.293 55.7064 439.495 54.1676 446.635 54.1676C451.682 54.1676 456.299 54.9524 460.484 56.522C464.67 58.0916 468.286 60.4152 471.333 63.4929C474.38 66.5705 476.75 70.3714 478.442 74.8956C480.135 79.389 480.981 84.544 480.981 90.3608V95.9929H419.351V82.8821H459.976C459.946 80.4815 459.376 78.3426 458.268 76.4652C457.16 74.5878 455.637 73.1259 453.698 72.0795C451.79 71.0024 449.589 70.4638 447.096 70.4638C444.573 70.4638 442.311 71.0331 440.31 72.1719C438.31 73.2798 436.725 74.8033 435.555 76.7422C434.386 78.6503 433.77 80.8201 433.709 83.2514V96.593C433.709 99.486 434.278 102.025 435.417 104.21C436.555 106.365 438.171 108.042 440.264 109.242C442.357 110.442 444.85 111.043 447.743 111.043C449.743 111.043 451.559 110.766 453.19 110.212C454.821 109.658 456.222 108.842 457.391 107.765C458.561 106.688 459.438 105.364 460.023 103.795L480.751 104.395C479.889 109.042 477.996 113.089 475.072 116.536C472.179 119.952 468.378 122.615 463.67 124.523C458.961 126.4 453.513 127.339 447.327 127.339ZM515.086 85.5597V126H492.511V55.0909H513.978V68.1094H514.762C516.332 63.7699 519.01 60.3691 522.795 57.907C526.581 55.4141 531.089 54.1676 536.321 54.1676C541.307 54.1676 545.631 55.291 549.294 57.5376C552.987 59.7535 555.849 62.862 557.88 66.8629C559.942 70.8331 560.958 75.4803 560.927 80.8047V126H538.353V85.2365C538.383 81.2971 537.383 78.2195 535.352 76.0035C533.351 73.7876 530.566 72.6797 526.996 72.6797C524.626 72.6797 522.533 73.2029 520.718 74.2493C518.933 75.2649 517.548 76.7268 516.563 78.6349C515.609 80.5431 515.116 82.8513 515.086 85.5597ZM600.802 127.016C595.57 127.016 590.815 125.661 586.537 122.953C582.259 120.245 578.843 116.182 576.289 110.766C573.734 105.349 572.457 98.6243 572.457 90.5916C572.457 82.2512 573.78 75.388 576.427 70.0021C579.074 64.6162 582.536 60.6307 586.814 58.0454C591.123 55.4602 595.755 54.1676 600.71 54.1676C604.434 54.1676 607.619 54.8139 610.266 56.1065C612.913 57.3684 615.098 58.9995 616.821 61C618.545 63.0005 619.853 65.0779 620.745 67.2322H621.207V31.4545H643.781V126H621.438V114.505H620.745C619.791 116.69 618.437 118.737 616.683 120.645C614.928 122.553 612.728 124.092 610.081 125.261C607.465 126.431 604.372 127.016 600.802 127.016ZM608.65 109.427C611.389 109.427 613.728 108.657 615.667 107.119C617.606 105.549 619.099 103.348 620.145 100.517C621.191 97.6856 621.715 94.3617 621.715 90.5455C621.715 86.6676 621.191 83.3284 620.145 80.5277C619.129 77.727 617.637 75.5727 615.667 74.0646C613.728 72.5566 611.389 71.8026 608.65 71.8026C605.849 71.8026 603.48 72.572 601.541 74.1108C599.602 75.6496 598.124 77.8194 597.109 80.62C596.124 83.4207 595.632 86.7292 595.632 90.5455C595.632 94.3617 596.139 97.6856 597.155 100.517C598.171 103.348 599.633 105.549 601.541 107.119C603.48 108.657 605.849 109.427 608.65 109.427ZM658.058 126V55.0909H680.632V126H658.058ZM669.368 46.8274C666.198 46.8274 663.475 45.781 661.197 43.6882C658.92 41.5646 657.781 39.0102 657.781 36.0249C657.781 33.0703 658.92 30.5466 661.197 28.4538C663.475 26.3303 666.198 25.2685 669.368 25.2685C672.569 25.2685 675.293 26.3303 677.539 28.4538C679.817 30.5466 680.956 33.0703 680.956 36.0249C680.956 39.0102 679.817 41.5646 677.539 43.6882C675.293 45.781 672.569 46.8274 669.368 46.8274Z" fill="white"/>
<path d="M81.3098 126H80.3098V127H81.3098V126ZM81.3098 55.0909V54.0909H80.3098V55.0909H81.3098ZM102.776 55.0909H103.776V54.0909H102.776V55.0909ZM102.776 68.1094H101.776V69.1094H102.776V68.1094ZM103.561 68.1094V69.1094H104.276L104.507 68.4337L103.561 68.1094ZM111.04 57.907L111.619 58.7221V58.7221L111.04 57.907ZM136.246 57.9531L135.662 58.7649L136.246 57.9531ZM142.94 68.1094L141.964 68.3286L142.14 69.1094H142.94V68.1094ZM143.678 68.1094V69.1094H144.413L144.633 68.4088L143.678 68.1094ZM151.434 57.9993L151.983 58.8354L151.987 58.8324L151.434 57.9993ZM181.395 60.6307L180.678 61.3275L180.68 61.33L181.395 60.6307ZM187.673 126V127H188.673V126H187.673ZM165.099 126H164.099V127H165.099V126ZM162.375 75.3572L161.656 76.0525L161.662 76.0584L162.375 75.3572ZM147.972 75.5881L147.221 74.928L147.22 74.9287L147.972 75.5881ZM145.34 126V127H146.34V126H145.34ZM123.643 126H122.643V127H123.643V126ZM120.965 75.4034L121.696 74.7203L120.965 75.4034ZM108.686 73.9723L109.208 74.8251L109.214 74.8213L109.22 74.8174L108.686 73.9723ZM105.131 77.9425L104.236 77.4953L104.233 77.5017L104.23 77.5082L105.131 77.9425ZM103.884 126V127H104.884V126H103.884ZM82.3098 126V55.0909H80.3098V126H82.3098ZM81.3098 56.0909H102.776V54.0909H81.3098V56.0909ZM101.776 55.0909V68.1094H103.776V55.0909H101.776ZM102.776 69.1094H103.561V67.1094H102.776V69.1094ZM104.507 68.4337C105.921 64.3107 108.291 61.0865 111.619 58.7221L110.461 57.0918C106.771 59.7132 104.156 63.2906 102.615 67.785L104.507 68.4337ZM111.619 58.7221C114.937 56.3648 118.914 55.1676 123.597 55.1676V53.1676C118.555 53.1676 114.16 54.4634 110.461 57.0918L111.619 58.7221ZM123.597 55.1676C128.342 55.1676 132.347 56.3802 135.662 58.7649L136.83 57.1413C133.128 54.4787 128.7 53.1676 123.597 53.1676V55.1676ZM135.662 58.7649C138.97 61.1445 141.063 64.3183 141.964 68.3286L143.915 67.8902C142.908 63.4061 140.539 59.8091 136.83 57.1413L135.662 58.7649ZM142.94 69.1094H143.678V67.1094H142.94V69.1094ZM144.633 68.4088C145.884 64.4224 148.32 61.2381 151.983 58.8354L150.886 57.1631C146.854 59.8079 144.12 63.3635 142.724 67.8099L144.633 68.4088ZM151.987 58.8324C155.649 56.4008 159.991 55.1676 165.053 55.1676V53.1676C159.651 53.1676 154.913 54.4889 150.881 57.1662L151.987 58.8324ZM165.053 55.1676C171.526 55.1676 176.703 57.2362 180.678 61.3275L182.112 59.9339C177.716 55.4078 171.998 53.1676 165.053 53.1676V55.1676ZM180.68 61.33C184.64 65.3772 186.673 70.9797 186.673 78.2656H188.673C188.673 70.5942 186.521 64.4401 182.11 59.9313L180.68 61.33ZM186.673 78.2656V126H188.673V78.2656H186.673ZM187.673 125H165.099V127H187.673V125ZM166.099 126V83.4361H164.099V126H166.099ZM166.099 83.4361C166.099 79.7327 165.147 76.7497 163.088 74.6561L161.662 76.0584C163.235 77.658 164.099 80.0609 164.099 83.4361H166.099ZM163.094 74.662C161.069 72.5679 158.444 71.5412 155.312 71.5412V73.5412C157.966 73.5412 160.05 74.3919 161.656 76.0525L163.094 74.662ZM155.312 71.5412C151.964 71.5412 149.225 72.6473 147.221 74.928L148.723 76.2482C150.289 74.4664 152.444 73.5412 155.312 73.5412V71.5412ZM147.22 74.9287C145.266 77.157 144.34 80.1069 144.34 83.6669H146.34C146.34 80.456 147.169 78.0201 148.724 76.2474L147.22 74.9287ZM144.34 83.6669V126H146.34V83.6669H144.34ZM145.34 125H123.643V127H145.34V125ZM124.643 126V83.2053H122.643V126H124.643ZM124.643 83.2053C124.643 79.7273 123.696 76.8585 121.696 74.7203L120.235 76.0866C121.805 77.7646 122.643 80.097 122.643 83.2053H124.643ZM121.696 74.7203C119.698 72.5849 117.066 71.5412 113.902 71.5412V73.5412C116.586 73.5412 118.663 74.4057 120.235 76.0866L121.696 74.7203ZM113.902 71.5412C111.764 71.5412 109.835 72.0616 108.151 73.1272L109.22 74.8174C110.552 73.9749 112.101 73.5412 113.902 73.5412V71.5412ZM108.163 73.1194C106.482 74.1492 105.174 75.62 104.236 77.4953L106.025 78.3897C106.811 76.818 107.873 75.642 109.208 74.8251L108.163 73.1194ZM104.23 77.5082C103.321 79.3939 102.884 81.5797 102.884 84.0362H104.884C104.884 81.8148 105.279 79.938 106.032 78.3768L104.23 77.5082ZM102.884 84.0362V126H104.884V84.0362H102.884ZM103.884 125H81.3098V127H103.884V125ZM201.661 152.591H200.661V153.591H201.661V152.591ZM201.661 55.0909V54.0909H200.661V55.0909H201.661ZM224.005 55.0909H225.005V54.0909H224.005V55.0909ZM224.005 67.2322H223.005V68.2322H224.005V67.2322ZM224.698 67.2322V68.2322H225.357L225.617 67.6262L224.698 67.2322ZM228.622 61L227.864 60.3473L227.858 60.3541L228.622 61ZM235.177 56.1065L235.607 57.0092L235.612 57.0071L235.177 56.1065ZM258.583 58.0454L258.065 58.9013L258.068 58.9029L258.583 58.0454ZM269.016 70.0021L269.913 69.5611L269.016 70.0021ZM269.154 110.766L268.25 110.339L268.248 110.343L269.154 110.766ZM258.906 122.953L258.374 122.106L258.371 122.108L258.906 122.953ZM235.362 125.261L234.954 126.174L235.362 125.261ZM228.76 120.645L228.024 121.322L228.03 121.328L228.76 120.645ZM224.698 114.505L225.614 114.105L225.352 113.505H224.698V114.505ZM224.236 114.505V113.505H223.236V114.505H224.236ZM224.236 152.591V153.591H225.236V152.591H224.236ZM225.298 100.517L224.356 100.855L224.36 100.864L225.298 100.517ZM229.776 107.119L229.147 107.896L229.153 107.901L229.16 107.907L229.776 107.119ZM243.902 107.119L244.524 107.902L244.531 107.896L243.902 107.119ZM248.288 100.517L247.346 100.179L247.343 100.189L248.288 100.517ZM248.288 80.62L247.344 80.9518L247.348 80.9609L248.288 80.62ZM243.902 74.1108L243.274 74.8892L243.281 74.8941L243.902 74.1108ZM229.776 74.0646L229.162 73.2753L229.776 74.0646ZM225.298 80.5277L224.361 80.1777L224.358 80.1868L225.298 80.5277ZM202.661 152.591V55.0909H200.661V152.591H202.661ZM201.661 56.0909H224.005V54.0909H201.661V56.0909ZM223.005 55.0909V67.2322H225.005V55.0909H223.005ZM224.005 68.2322H224.698V66.2322H224.005V68.2322ZM225.617 67.6262C226.497 65.5731 227.749 63.5794 229.385 61.6459L227.858 60.3541C226.109 62.4215 224.745 64.5826 223.778 66.8383L225.617 67.6262ZM229.379 61.6527C231.003 59.7684 233.072 58.218 235.607 57.0092L234.747 55.2039C231.989 56.5188 229.688 58.2306 227.864 60.3473L229.379 61.6527ZM235.612 57.0071C238.124 55.7943 241.169 55.1676 244.779 55.1676V53.1676C240.942 53.1676 237.585 53.8335 234.742 55.206L235.612 57.0071ZM244.779 55.1676C249.518 55.1676 253.941 56.4089 258.065 58.9013L259.1 57.1896C254.668 54.5116 249.889 53.1676 244.779 53.1676V55.1676ZM258.068 58.9029C262.182 61.3713 265.54 65.1961 268.118 70.4432L269.913 69.5611C267.198 64.0364 263.601 59.8901 259.097 57.188L258.068 58.9029ZM268.118 70.4432C270.677 75.6491 271.986 82.348 271.986 90.5916H273.986C273.986 82.1544 272.649 75.127 269.913 69.5611L268.118 70.4432ZM271.986 90.5916C271.986 98.5246 270.724 105.093 268.25 110.339L270.059 111.192C272.694 105.605 273.986 98.7239 273.986 90.5916H271.986ZM268.248 110.343C265.791 115.616 262.493 119.517 258.374 122.106L259.438 123.8C263.936 120.972 267.47 116.748 270.061 111.188L268.248 110.343ZM258.371 122.108C254.258 124.712 249.69 126.016 244.641 126.016V128.016C250.056 128.016 254.997 126.611 259.441 123.798L258.371 122.108ZM244.641 126.016C241.178 126.016 238.23 125.448 235.77 124.348L234.954 126.174C237.725 127.413 240.964 128.016 244.641 128.016V126.016ZM235.77 124.348C233.264 123.228 231.176 121.764 229.49 119.962L228.03 121.328C229.914 123.342 232.228 124.956 234.954 126.174L235.77 124.348ZM229.496 119.968C227.811 118.134 226.52 116.18 225.614 114.105L223.781 114.905C224.783 117.2 226.201 119.339 228.024 121.322L229.496 119.968ZM224.698 113.505H224.236V115.505H224.698V113.505ZM223.236 114.505V152.591H225.236V114.505H223.236ZM224.236 151.591H201.661V153.591H224.236V151.591ZM222.774 90.5455C222.774 94.4473 223.293 97.8902 224.356 100.855L226.239 100.179C225.271 97.481 224.774 94.2762 224.774 90.5455H222.774ZM224.36 100.864C225.455 103.828 227.041 106.191 229.147 107.896L230.405 106.341C228.633 104.907 227.233 102.869 226.236 100.17L224.36 100.864ZM229.16 107.907C231.323 109.596 233.899 110.427 236.839 110.427V108.427C234.3 108.427 232.168 107.719 230.391 106.331L229.16 107.907ZM236.839 110.427C239.806 110.427 242.387 109.598 244.524 107.902L243.281 106.335C241.539 107.717 239.412 108.427 236.839 108.427V110.427ZM244.531 107.896C246.642 106.187 248.199 103.817 249.232 100.846L247.343 100.189C246.407 102.88 245.04 104.911 243.273 106.341L244.531 107.896ZM249.229 100.855C250.292 97.8902 250.811 94.4473 250.811 90.5455H248.811C248.811 94.2762 248.314 97.481 247.347 100.179L249.229 100.855ZM250.811 90.5455C250.811 86.644 250.293 83.2149 249.228 80.2791L247.348 80.9609C248.314 83.6265 248.811 86.8143 248.811 90.5455H250.811ZM249.231 80.2883C248.196 77.3456 246.638 75.005 244.524 73.3275L243.281 74.8941C245.045 76.2942 246.41 78.2932 247.344 80.9518L249.231 80.2883ZM244.53 73.3324C242.419 71.63 239.834 70.8026 236.839 70.8026V72.8026C239.445 72.8026 241.569 73.5139 243.274 74.8892L244.53 73.3324ZM236.839 70.8026C233.877 70.8026 231.298 71.6134 229.162 73.2753L230.39 74.854C232.131 73.4997 234.262 72.8026 236.839 72.8026V70.8026ZM229.162 73.2753C227.048 74.9195 225.458 77.2413 224.361 80.1777L226.235 80.8777C227.23 78.2128 228.626 76.2259 230.39 74.854L229.162 73.2753ZM224.358 80.1868C223.292 83.1241 222.774 86.5846 222.774 90.5455H224.774C224.774 86.7507 225.272 83.5326 226.238 80.8686L224.358 80.1868ZM284.816 126H283.816V127H284.816V126ZM284.816 55.0909V54.0909H283.816V55.0909H284.816ZM306.744 55.0909H307.744V54.0909H306.744V55.0909ZM306.744 68.017H305.744V69.017H306.744V68.017ZM307.483 68.017V69.017H308.244L308.446 68.2834L307.483 68.017ZM313.807 57.5838L314.422 58.3727L314.427 58.3687L313.807 57.5838ZM327.241 54.3523L327.104 55.3428L327.117 55.3446L327.131 55.3462L327.241 54.3523ZM330.334 54.9524H331.334V54.2015L330.613 53.9921L330.334 54.9524ZM330.334 74.5724L330.01 75.5184L331.334 75.9724V74.5724H330.334ZM326.087 73.6953L325.963 74.6876L325.965 74.6879L326.087 73.6953ZM314.223 75.1726L314.705 76.0485L314.709 76.0462L314.223 75.1726ZM309.191 80.1122L308.326 79.6107L308.323 79.6147L309.191 80.1122ZM307.39 126V127H308.39V126H307.39ZM285.816 126V55.0909H283.816V126H285.816ZM284.816 56.0909H306.744V54.0909H284.816V56.0909ZM305.744 55.0909V68.017H307.744V55.0909H305.744ZM306.744 69.017H307.483V67.017H306.744V69.017ZM308.446 68.2834C309.7 63.7485 311.713 60.4824 314.422 58.3727L313.193 56.7949C310.053 59.2402 307.851 62.9295 306.519 67.7507L308.446 68.2834ZM314.427 58.3687C317.166 56.2058 320.347 55.1214 324.01 55.1214V53.1214C319.917 53.1214 316.295 54.3453 313.188 56.7989L314.427 58.3687ZM324.01 55.1214C325.007 55.1214 326.038 55.1948 327.104 55.3428L327.379 53.3618C326.228 53.202 325.105 53.1214 324.01 53.1214V55.1214ZM327.131 55.3462C328.188 55.4637 329.163 55.6536 330.055 55.9128L330.613 53.9921C329.598 53.6973 328.51 53.4871 327.352 53.3584L327.131 55.3462ZM329.334 54.9524V74.5724H331.334V54.9524H329.334ZM330.658 73.6265C329.49 73.2259 327.999 72.9226 326.209 72.7028L325.965 74.6879C327.684 74.8989 329.024 75.1803 330.01 75.5184L330.658 73.6265ZM326.211 72.703C324.457 72.4838 322.876 72.3722 321.471 72.3722V74.3722C322.774 74.3722 324.27 74.4759 325.963 74.6876L326.211 72.703ZM321.471 72.3722C318.638 72.3722 316.052 73.0088 313.736 74.299L314.709 76.0462C316.702 74.9358 318.948 74.3722 321.471 74.3722V72.3722ZM313.74 74.2966C311.455 75.555 309.647 77.3319 308.326 79.6107L310.056 80.6137C311.197 78.6454 312.743 77.1292 314.705 76.0485L313.74 74.2966ZM308.323 79.6147C307.022 81.8834 306.39 84.5231 306.39 87.4986H308.39C308.39 84.8112 308.959 82.5267 310.058 80.6097L308.323 79.6147ZM306.39 87.4986V126H308.39V87.4986H306.39ZM307.39 125H284.816V127H307.39V125ZM349.793 122.953L349.31 123.829L349.316 123.832L349.793 122.953ZM337.42 110.35L336.534 110.813L336.537 110.819L337.42 110.35ZM337.467 71.6179L338.351 72.0849L338.352 72.0828L337.467 71.6179ZM349.7 58.7841L350.201 59.6495L350.205 59.6473L349.7 58.7841ZM382.154 56.522L382.505 55.5857L382.154 56.522ZM400.112 74.8956L399.176 75.246L399.176 75.2481L400.112 74.8956ZM402.651 95.9929V96.9929H403.651V95.9929H402.651ZM341.021 95.9929H340.021V96.9929H341.021V95.9929ZM341.021 82.8821V81.8821H340.021V82.8821H341.021ZM381.646 82.8821V83.8821H382.659L382.646 82.8693L381.646 82.8821ZM375.368 72.0795L374.876 72.9504L374.885 72.955L374.893 72.9596L375.368 72.0795ZM361.98 72.1719L362.465 73.0467L362.475 73.0409L361.98 72.1719ZM357.225 76.7422L358.078 77.2648L358.081 77.2587L357.225 76.7422ZM355.379 83.2514L354.379 83.2261L354.379 83.2388V83.2514H355.379ZM357.087 104.21L356.2 104.672L356.203 104.678L357.087 104.21ZM361.934 109.242L361.436 110.11L361.934 109.242ZM374.86 110.212L375.182 111.159L374.86 110.212ZM379.061 107.765L379.739 108.5L379.061 107.765ZM381.692 103.795L381.721 102.795L381.005 102.774L380.755 103.446L381.692 103.795ZM402.42 104.395L403.404 104.577L403.617 103.429L402.449 103.395L402.42 104.395ZM396.742 116.536L395.98 115.889L395.979 115.89L396.742 116.536ZM385.339 124.523L385.71 125.452L385.715 125.45L385.339 124.523ZM368.997 126.339C361.712 126.339 355.481 124.903 350.27 122.074L349.316 123.832C354.876 126.85 361.448 128.339 368.997 128.339V126.339ZM350.276 122.078C345.092 119.218 341.106 115.159 338.304 109.881L336.537 110.819C339.521 116.437 343.783 120.78 349.31 123.829L350.276 122.078ZM338.307 109.887C335.534 104.58 334.127 98.2365 334.127 90.8224H332.127C332.127 98.4889 333.583 105.164 336.534 110.813L338.307 109.887ZM334.127 90.8224C334.127 83.6308 335.547 77.3951 338.351 72.0849L336.582 71.1509C333.601 76.7972 332.127 83.3645 332.127 90.8224H334.127ZM338.352 72.0828C341.159 66.7368 345.106 62.5995 350.201 59.6495L349.199 57.9187C343.769 61.0624 339.56 65.481 336.581 71.153L338.352 72.0828ZM350.205 59.6473C355.29 56.6735 361.311 55.1676 368.305 55.1676V53.1676C361.018 53.1676 354.636 54.7393 349.195 57.9209L350.205 59.6473ZM368.305 55.1676C373.247 55.1676 377.743 55.9359 381.803 57.4583L382.505 55.5857C378.194 53.9689 373.457 53.1676 368.305 53.1676V55.1676ZM381.803 57.4583C385.858 58.9789 389.35 61.2248 392.292 64.1964L393.714 62.7894C390.562 59.6057 386.822 57.2043 382.505 55.5857L381.803 57.4583ZM392.292 64.1964C395.229 67.1627 397.527 70.8389 399.176 75.246L401.049 74.5452C399.312 69.904 396.871 65.9784 393.714 62.7894L392.292 64.1964ZM399.176 75.2481C400.819 79.6078 401.651 84.6397 401.651 90.3608H403.651C403.651 84.4483 402.791 79.1701 401.048 74.5431L399.176 75.2481ZM401.651 90.3608V95.9929H403.651V90.3608H401.651ZM402.651 94.9929H341.021V96.9929H402.651V94.9929ZM342.021 95.9929V82.8821H340.021V95.9929H342.021ZM341.021 83.8821H381.646V81.8821H341.021V83.8821ZM382.646 82.8693C382.613 80.3124 382.005 77.9994 380.799 75.9569L379.077 76.9734C380.088 78.6857 380.618 80.6506 380.646 82.8949L382.646 82.8693ZM380.799 75.9569C379.598 73.921 377.94 72.3314 375.843 71.1995L374.893 72.9596C376.673 73.9205 378.063 75.2546 379.077 76.9734L380.799 75.9569ZM375.859 71.2087C373.782 70.0358 371.407 69.4638 368.766 69.4638V71.4638C371.111 71.4638 373.138 71.969 374.876 72.9504L375.859 71.2087ZM368.766 69.4638C366.086 69.4638 363.651 70.0702 361.485 71.3028L362.475 73.0409C364.31 71.9961 366.399 71.4638 368.766 71.4638V69.4638ZM361.496 71.2971C359.344 72.489 357.63 74.1353 356.369 76.2257L358.081 77.2587C359.16 75.4712 360.616 74.0707 362.465 73.0467L361.496 71.2971ZM356.373 76.2196C355.103 78.2906 354.444 80.6347 354.379 83.2261L356.378 83.2767C356.436 81.0055 357.008 79.0101 358.078 77.2647L356.373 76.2196ZM354.379 83.2514V96.593H356.379V83.2514H354.379ZM354.379 96.593C354.379 99.6189 354.975 102.322 356.2 104.672L357.973 103.748C356.921 101.729 356.379 99.3531 356.379 96.593H354.379ZM356.203 104.678C357.429 106.997 359.178 108.814 361.436 110.11L362.431 108.375C360.505 107.27 359.022 105.732 357.971 103.743L356.203 104.678ZM361.436 110.11C363.708 111.413 366.38 112.043 369.413 112.043V110.043C366.659 110.043 364.345 109.472 362.431 108.375L361.436 110.11ZM369.413 112.043C371.505 112.043 373.432 111.753 375.182 111.159L374.539 109.265C373.026 109.778 371.321 110.043 369.413 110.043V112.043ZM375.182 111.159C376.934 110.563 378.458 109.68 379.739 108.5L378.384 107.029C377.325 108.004 376.049 108.752 374.539 109.265L375.182 111.159ZM379.739 108.5C381.03 107.311 381.993 105.853 382.63 104.144L380.755 103.446C380.223 104.876 379.431 106.064 378.384 107.029L379.739 108.5ZM381.664 104.794L402.392 105.394L402.449 103.395L381.721 102.795L381.664 104.794ZM401.437 104.213C400.606 108.697 398.785 112.582 395.98 115.889L397.505 117.183C400.547 113.597 402.512 109.388 403.404 104.577L401.437 104.213ZM395.979 115.89C393.204 119.167 389.543 121.74 384.964 123.596L385.715 125.45C390.553 123.489 394.494 120.738 397.505 117.182L395.979 115.89ZM384.969 123.594C380.401 125.415 375.084 126.339 368.997 126.339V128.339C375.283 128.339 380.86 127.385 385.71 125.452L384.969 123.594ZM428.123 122.953L427.64 123.829L427.646 123.832L428.123 122.953ZM415.751 110.35L414.864 110.813L414.867 110.819L415.751 110.35ZM415.797 71.6179L416.681 72.0849L416.682 72.0828L415.797 71.6179ZM428.03 58.7841L428.531 59.6495L428.535 59.6473L428.03 58.7841ZM460.484 56.522L460.835 55.5857L460.484 56.522ZM478.442 74.8956L477.506 75.246L477.507 75.2481L478.442 74.8956ZM480.981 95.9929V96.9929H481.981V95.9929H480.981ZM419.351 95.9929H418.351V96.9929H419.351V95.9929ZM419.351 82.8821V81.8821H418.351V82.8821H419.351ZM459.976 82.8821V83.8821H460.989L460.976 82.8693L459.976 82.8821ZM453.698 72.0795L453.206 72.9504L453.215 72.955L453.223 72.9596L453.698 72.0795ZM440.31 72.1719L440.795 73.0467L440.805 73.0409L440.31 72.1719ZM435.555 76.7422L436.408 77.2648L436.411 77.2587L435.555 76.7422ZM433.709 83.2514L432.709 83.2261L432.709 83.2388V83.2514H433.709ZM435.417 104.21L434.53 104.672L434.533 104.678L435.417 104.21ZM440.264 109.242L439.767 110.11L440.264 109.242ZM453.19 110.212L453.512 111.159L453.19 110.212ZM457.391 107.765L458.069 108.5L457.391 107.765ZM460.023 103.795L460.051 102.795L459.336 102.774L459.085 103.446L460.023 103.795ZM480.751 104.395L481.734 104.577L481.947 103.429L480.779 103.395L480.751 104.395ZM475.072 116.536L474.31 115.889L474.309 115.89L475.072 116.536ZM463.67 124.523L464.04 125.452L464.045 125.45L463.67 124.523ZM447.327 126.339C440.042 126.339 433.811 124.903 428.6 122.074L427.646 123.832C433.206 126.85 439.778 128.339 447.327 128.339V126.339ZM428.606 122.078C423.422 119.218 419.436 115.159 416.634 109.881L414.867 110.819C417.851 116.437 422.113 120.78 427.64 123.829L428.606 122.078ZM416.637 109.887C413.864 104.58 412.457 98.2365 412.457 90.8224H410.457C410.457 98.4889 411.913 105.164 414.864 110.813L416.637 109.887ZM412.457 90.8224C412.457 83.6308 413.877 77.3951 416.681 72.0849L414.912 71.1509C411.931 76.7972 410.457 83.3645 410.457 90.8224H412.457ZM416.682 72.0828C419.489 66.7368 423.436 62.5995 428.531 59.6495L427.529 57.9187C422.099 61.0624 417.89 65.481 414.911 71.153L416.682 72.0828ZM428.535 59.6473C433.62 56.6735 439.641 55.1676 446.635 55.1676V53.1676C439.348 53.1676 432.966 54.7393 427.526 57.9209L428.535 59.6473ZM446.635 55.1676C451.578 55.1676 456.073 55.9359 460.133 57.4583L460.835 55.5857C456.524 53.9689 451.787 53.1676 446.635 53.1676V55.1676ZM460.133 57.4583C464.188 58.9789 467.68 61.2248 470.622 64.1964L472.044 62.7894C468.892 59.6057 465.152 57.2043 460.835 55.5857L460.133 57.4583ZM470.622 64.1964C473.559 67.1627 475.857 70.8389 477.506 75.246L479.379 74.5452C477.642 69.904 475.201 65.9784 472.044 62.7894L470.622 64.1964ZM477.507 75.2481C479.149 79.6078 479.981 84.6397 479.981 90.3608H481.981C481.981 84.4483 481.121 79.1701 479.378 74.5431L477.507 75.2481ZM479.981 90.3608V95.9929H481.981V90.3608H479.981ZM480.981 94.9929H419.351V96.9929H480.981V94.9929ZM420.351 95.9929V82.8821H418.351V95.9929H420.351ZM419.351 83.8821H459.976V81.8821H419.351V83.8821ZM460.976 82.8693C460.944 80.3124 460.335 77.9994 459.129 75.9569L457.407 76.9734C458.418 78.6857 458.948 80.6506 458.976 82.8949L460.976 82.8693ZM459.129 75.9569C457.928 73.921 456.27 72.3314 454.173 71.1995L453.223 72.9596C455.004 73.9205 456.393 75.2546 457.407 76.9734L459.129 75.9569ZM454.19 71.2087C452.112 70.0358 449.737 69.4638 447.096 69.4638V71.4638C449.441 71.4638 451.468 71.969 453.206 72.9504L454.19 71.2087ZM447.096 69.4638C444.416 69.4638 441.981 70.0702 439.815 71.3028L440.805 73.0409C442.64 71.9961 444.729 71.4638 447.096 71.4638V69.4638ZM439.826 71.2971C437.674 72.489 435.96 74.1353 434.699 76.2257L436.411 77.2587C437.49 75.4712 438.946 74.0707 440.795 73.0467L439.826 71.2971ZM434.703 76.2196C433.433 78.2906 432.775 80.6347 432.709 83.2261L434.708 83.2767C434.766 81.0055 435.338 79.0101 436.408 77.2647L434.703 76.2196ZM432.709 83.2514V96.593H434.709V83.2514H432.709ZM432.709 96.593C432.709 99.6189 433.305 102.322 434.53 104.672L436.304 103.748C435.251 101.729 434.709 99.3531 434.709 96.593H432.709ZM434.533 104.678C435.759 106.997 437.508 108.814 439.767 110.11L440.762 108.375C438.835 107.27 437.352 105.732 436.301 103.743L434.533 104.678ZM439.767 110.11C442.038 111.413 444.71 112.043 447.743 112.043V110.043C444.99 110.043 442.675 109.472 440.762 108.375L439.767 110.11ZM447.743 112.043C449.835 112.043 451.762 111.753 453.512 111.159L452.869 109.265C451.356 109.778 449.651 110.043 447.743 110.043V112.043ZM453.512 111.159C455.264 110.563 456.788 109.68 458.069 108.5L456.714 107.029C455.655 108.004 454.379 108.752 452.869 109.265L453.512 111.159ZM458.069 108.5C459.36 107.311 460.323 105.853 460.96 104.144L459.085 103.446C458.553 104.876 457.761 106.064 456.714 107.029L458.069 108.5ZM459.994 104.794L480.722 105.394L480.779 103.395L460.051 102.795L459.994 104.794ZM479.767 104.213C478.936 108.697 477.115 112.582 474.31 115.889L475.835 117.183C478.877 113.597 480.842 109.388 481.734 104.577L479.767 104.213ZM474.309 115.89C471.534 119.167 467.873 121.74 463.294 123.596L464.045 125.45C468.883 123.489 472.824 120.738 475.835 117.182L474.309 115.89ZM463.299 123.594C458.731 125.415 453.414 126.339 447.327 126.339V128.339C453.613 128.339 459.19 127.385 464.04 125.452L463.299 123.594ZM515.086 85.5597L514.086 85.5483V85.5597H515.086ZM515.086 126V127H516.086V126H515.086ZM492.511 126H491.511V127H492.511V126ZM492.511 55.0909V54.0909H491.511V55.0909H492.511ZM513.978 55.0909H514.978V54.0909H513.978V55.0909ZM513.978 68.1094H512.978V69.1094H513.978V68.1094ZM514.762 68.1094V69.1094H515.464L515.703 68.4495L514.762 68.1094ZM522.795 57.907L523.34 58.7453L523.345 58.7421L522.795 57.907ZM549.294 57.5376L548.771 58.3901L548.779 58.3951L549.294 57.5376ZM557.88 66.8629L556.989 67.3156L556.993 67.3238L557.88 66.8629ZM560.927 80.8047L559.927 80.7989V80.8047H560.927ZM560.927 126V127H561.927V126H560.927ZM538.353 126H537.353V127H538.353V126ZM538.353 85.2365L537.353 85.2287V85.2365H538.353ZM535.352 76.0035L534.61 76.6737L534.615 76.6793L535.352 76.0035ZM520.718 74.2493L521.212 75.1185L521.217 75.1157L520.718 74.2493ZM516.563 78.6349L515.674 78.1763L515.668 78.1877L516.563 78.6349ZM514.086 85.5597V126H516.086V85.5597H514.086ZM515.086 125H492.511V127H515.086V125ZM493.511 126V55.0909H491.511V126H493.511ZM492.511 56.0909H513.978V54.0909H492.511V56.0909ZM512.978 55.0909V68.1094H514.978V55.0909H512.978ZM513.978 69.1094H514.762V67.1094H513.978V69.1094ZM515.703 68.4495C517.2 64.3098 519.741 61.086 523.34 58.7452L522.25 57.0687C518.278 59.6522 515.464 63.23 513.822 67.7692L515.703 68.4495ZM523.345 58.7421C526.943 56.3726 531.254 55.1676 536.321 55.1676V53.1676C530.925 53.1676 526.218 54.4555 522.245 57.0718L523.345 58.7421ZM536.321 55.1676C541.153 55.1676 545.29 56.2545 548.771 58.39L549.817 56.6852C545.973 54.3274 541.462 53.1676 536.321 53.1676V55.1676ZM548.779 58.3951C552.304 60.5101 555.039 63.475 556.989 67.3156L558.772 66.4102C556.659 62.2489 553.67 58.997 549.808 56.6801L548.779 58.3951ZM556.993 67.3238C558.967 71.1249 559.957 75.6062 559.927 80.7989L561.927 80.8105C561.959 75.3545 560.918 70.5413 558.768 66.402L556.993 67.3238ZM559.927 80.8047V126H561.927V80.8047H559.927ZM560.927 125H538.353V127H560.927V125ZM539.353 126V85.2365H537.353V126H539.353ZM539.353 85.2443C539.385 81.1328 538.339 77.7822 536.089 75.3278L534.615 76.6793C536.427 78.6567 537.382 81.4614 537.353 85.2287L539.353 85.2443ZM536.094 75.3334C533.867 72.8665 530.789 71.6797 526.996 71.6797V73.6797C530.344 73.6797 532.836 74.7088 534.61 76.6737L536.094 75.3334ZM526.996 71.6797C524.474 71.6797 522.205 72.238 520.218 73.3829L521.217 75.1157C522.862 74.1678 524.778 73.6797 526.996 73.6797V71.6797ZM520.223 73.3801C518.262 74.496 516.744 76.1043 515.674 78.1763L517.451 79.0936C518.352 77.3493 519.603 76.0338 521.212 75.1185L520.223 73.3801ZM515.668 78.1877C514.631 80.2627 514.118 82.7282 514.086 85.5483L516.086 85.571C516.115 82.9745 516.587 80.8234 517.457 79.0822L515.668 78.1877ZM586.537 122.953L586.002 123.798L586.537 122.953ZM576.289 110.766L575.384 111.192L576.289 110.766ZM576.427 70.0021L577.324 70.4432L576.427 70.0021ZM586.814 58.0454L586.3 57.188L586.297 57.1896L586.814 58.0454ZM610.266 56.1065L609.827 57.0051L609.835 57.0092L610.266 56.1065ZM616.821 61L617.579 60.3473L616.821 61ZM620.745 67.2322L619.821 67.615L620.077 68.2322H620.745V67.2322ZM621.207 67.2322V68.2322H622.207V67.2322H621.207ZM621.207 31.4545V30.4545H620.207V31.4545H621.207ZM643.781 31.4545H644.781V30.4545H643.781V31.4545ZM643.781 126V127H644.781V126H643.781ZM621.438 126H620.438V127H621.438V126ZM621.438 114.505H622.438V113.505H621.438V114.505ZM620.745 114.505V113.505H620.091L619.829 114.105L620.745 114.505ZM616.683 120.645L615.947 119.968L616.683 120.645ZM610.081 125.261L609.677 124.347L609.673 124.348L610.081 125.261ZM615.667 107.119L616.289 107.902L616.296 107.896L615.667 107.119ZM620.145 100.517L621.083 100.864L620.145 100.517ZM620.145 80.5277L619.205 80.8686L619.208 80.8777L620.145 80.5277ZM615.667 74.0646L615.053 74.854L615.059 74.8586L615.667 74.0646ZM601.541 74.1108L602.162 74.8941L601.541 74.1108ZM597.109 80.62L596.169 80.2791L596.165 80.2883L597.109 80.62ZM601.541 107.119L600.905 107.891L600.912 107.896L600.919 107.902L601.541 107.119ZM600.802 126.016C595.753 126.016 591.184 124.712 587.072 122.108L586.002 123.798C590.446 126.611 595.387 128.016 600.802 128.016V126.016ZM587.072 122.108C582.982 119.519 579.681 115.616 577.193 110.339L575.384 111.192C578.004 116.749 581.536 120.971 586.002 123.798L587.072 122.108ZM577.193 110.339C574.719 105.093 573.457 98.5246 573.457 90.5916H571.457C571.457 98.7239 572.749 105.605 575.384 111.192L577.193 110.339ZM573.457 90.5916C573.457 82.348 574.766 75.6491 577.324 70.4432L575.53 69.5611C572.794 75.127 571.457 82.1544 571.457 90.5916H573.457ZM577.324 70.4432C579.904 65.1943 583.248 61.3692 587.331 58.9013L586.297 57.1896C581.825 59.8922 578.244 64.0382 575.53 69.5611L577.324 70.4432ZM587.329 58.9029C591.484 56.4096 595.939 55.1676 600.71 55.1676V53.1676C595.571 53.1676 590.761 54.5109 586.3 57.188L587.329 58.9029ZM600.71 55.1676C604.321 55.1676 607.348 55.7945 609.827 57.0051L610.705 55.208C607.89 53.8334 604.547 53.1676 600.71 53.1676V55.1676ZM609.835 57.0092C612.371 58.218 614.44 59.7684 616.064 61.6527L617.579 60.3473C615.755 58.2306 613.454 56.5188 610.696 55.2039L609.835 57.0092ZM616.064 61.6527C617.727 63.5831 618.975 65.5709 619.821 67.615L621.669 66.8495C620.731 64.5848 619.363 62.4178 617.579 60.3473L616.064 61.6527ZM620.745 68.2322H621.207V66.2322H620.745V68.2322ZM622.207 67.2322V31.4545H620.207V67.2322H622.207ZM621.207 32.4545H643.781V30.4545H621.207V32.4545ZM642.781 31.4545V126H644.781V31.4545H642.781ZM643.781 125H621.438V127H643.781V125ZM622.438 126V114.505H620.438V126H622.438ZM621.438 113.505H620.745V115.505H621.438V113.505ZM619.829 114.105C618.923 116.18 617.632 118.134 615.947 119.968L617.419 121.322C619.242 119.339 620.66 117.2 621.662 114.905L619.829 114.105ZM615.947 119.968C614.296 121.764 612.213 123.226 609.677 124.347L610.485 126.176C613.243 124.957 615.561 123.342 617.419 121.322L615.947 119.968ZM609.673 124.348C607.213 125.448 604.265 126.016 600.802 126.016V128.016C604.479 128.016 607.717 127.413 610.489 126.174L609.673 124.348ZM608.65 110.427C611.589 110.427 614.154 109.596 616.289 107.902L615.045 106.335C613.302 107.719 611.189 108.427 608.65 108.427V110.427ZM616.296 107.896C618.402 106.191 619.987 103.828 621.083 100.864L619.207 100.17C618.21 102.869 616.81 104.907 615.038 106.341L616.296 107.896ZM621.083 100.864C622.18 97.8963 622.715 94.4501 622.715 90.5455H620.715C620.715 94.2734 620.203 97.4749 619.207 100.17L621.083 100.864ZM622.715 90.5455C622.715 86.5818 622.18 83.118 621.082 80.1777L619.208 80.8777C620.203 83.5387 620.715 86.7534 620.715 90.5455H622.715ZM621.085 80.1868C620.018 77.2429 618.425 74.9164 616.275 73.2706L615.059 74.8586C616.849 76.229 618.241 78.2111 619.205 80.8686L621.085 80.1868ZM616.281 73.2753C614.146 71.615 611.584 70.8026 608.65 70.8026V72.8026C611.194 72.8026 613.31 73.4982 615.053 74.854L616.281 73.2753ZM608.65 70.8026C605.655 70.8026 603.058 71.6301 600.919 73.3275L602.162 74.8941C603.901 73.5139 606.044 72.8026 608.65 72.8026V70.8026ZM600.919 73.3275C598.808 75.0029 597.235 77.34 596.169 80.2791L598.049 80.9609C599.014 78.2987 600.396 76.2963 602.162 74.8941L600.919 73.3275ZM596.165 80.2883C595.134 83.221 594.632 86.6468 594.632 90.5455H596.632C596.632 86.8115 597.114 83.6203 598.052 80.9518L596.165 80.2883ZM594.632 90.5455C594.632 94.4473 595.15 97.8902 596.214 100.855L598.096 100.179C597.128 97.481 596.632 94.2762 596.632 90.5455H594.632ZM596.214 100.855C597.277 103.819 598.83 106.184 600.905 107.891L602.176 106.346C600.435 104.914 599.064 102.878 598.096 100.179L596.214 100.855ZM600.919 107.902C603.058 109.599 605.655 110.427 608.65 110.427V108.427C606.044 108.427 603.901 107.716 602.162 106.335L600.919 107.902ZM658.058 126H657.058V127H658.058V126ZM658.058 55.0909V54.0909H657.058V55.0909H658.058ZM680.632 55.0909H681.632V54.0909H680.632V55.0909ZM680.632 126V127H681.632V126H680.632ZM661.197 43.6882L660.515 44.4196L660.52 44.4245L661.197 43.6882ZM661.197 28.4538L661.874 29.1902L661.879 29.1852L661.197 28.4538ZM677.539 28.4538L676.852 29.1806L676.863 29.1902L677.539 28.4538ZM677.539 43.6882L678.221 44.4199L678.221 44.4196L677.539 43.6882ZM659.058 126V55.0909H657.058V126H659.058ZM658.058 56.0909H680.632V54.0909H658.058V56.0909ZM679.632 55.0909V126H681.632V55.0909H679.632ZM680.632 125H658.058V127H680.632V125ZM669.368 45.8274C666.442 45.8274 663.962 44.8705 661.874 42.9519L660.52 44.4245C662.987 46.6915 665.955 47.8274 669.368 47.8274V45.8274ZM661.879 42.9568C659.795 41.0132 658.781 38.7196 658.781 36.0249H656.781C656.781 39.3007 658.045 42.1161 660.515 44.4196L661.879 42.9568ZM658.781 36.0249C658.781 33.3647 659.791 31.1036 661.874 29.1902L660.52 27.7175C658.048 29.9897 656.781 32.776 656.781 36.0249H658.781ZM661.879 29.1852C663.968 27.2377 666.446 26.2685 669.368 26.2685V24.2685C665.95 24.2685 662.981 25.4228 660.515 27.7225L661.879 29.1852ZM669.368 26.2685C672.324 26.2685 674.799 27.2392 676.852 29.1806L678.226 27.7271C675.787 25.4213 672.814 24.2685 669.368 24.2685V26.2685ZM676.863 29.1902C678.945 31.1036 679.956 33.3647 679.956 36.0249H681.956C681.956 32.776 680.689 29.9897 678.216 27.7175L676.863 29.1902ZM679.956 36.0249C679.956 38.7196 678.942 41.0132 676.857 42.9568L678.221 44.4196C680.692 42.1161 681.956 39.3007 681.956 36.0249H679.956ZM676.858 42.9565C674.805 44.869 672.328 45.8274 669.368 45.8274V47.8274C672.81 47.8274 675.781 46.6931 678.221 44.4199L676.858 42.9565Z" fill="white" mask="url(#path-8-outside-1_98_336)"/>
</svg>
