<svg width="112" height="112" viewBox="0 0 112 112" fill="none" xmlns="http://www.w3.org/2000/svg">
<rect x="5" y="5" width="101.6" height="101.6" rx="25" stroke="black" stroke-width="10"/>
<path d="M84.4406 55.5785C84.4406 71.4655 71.6136 84.3445 55.7906 84.3445C39.9677 84.3445 27.1406 71.4655 27.1406 55.5785C27.1406 39.6915 39.9677 26.8125 55.7906 26.8125C71.6136 26.8125 84.4406 39.6915 84.4406 55.5785ZM37.3546 55.5785C37.3546 65.8016 45.6087 74.0891 55.7906 74.0891C65.9726 74.0891 74.2266 65.8016 74.2266 55.5785C74.2266 45.3553 65.9726 37.0678 55.7906 37.0678C45.6087 37.0678 37.3546 45.3553 37.3546 55.5785Z" fill="black"/>
<ellipse cx="85.5656" cy="25.827" rx="6.675" ry="6.70202" fill="black"/>
</svg>
