<svg width="75" height="75" viewBox="0 0 75 75" fill="none" xmlns="http://www.w3.org/2000/svg">
<rect width="74.8" height="74.8" rx="20" fill="black"/>
<rect x="14" y="28.8594" width="10" height="31.9573" fill="white"/>
<path d="M29.875 28.8594H39.475V36.7988L39.875 44.838V52.8273V60.8167H29.875V28.8594Z" fill="white"/>
<path d="M50.7812 27.9688C56.3041 27.9688 60.7812 32.4459 60.7812 37.9688V60.8248H50.7812V27.9688Z" fill="white"/>
<ellipse cx="18.8937" cy="18.9798" rx="5.8" ry="5.79226" fill="white"/>
<path fill-rule="evenodd" clip-rule="evenodd" d="M57.013 45.6356C57.013 55.4532 65.4404 42.6396 57.0457 42.6396C57.0281 43.6136 57.013 44.6146 57.013 45.6356ZM39.9386 47.6311C35.4142 49.1489 32.573 49.5279 34.813 45.6356C34.813 35.8181 41.6183 27.8594 50.013 27.8594C57.3235 27.8594 57.21 33.895 57.0587 41.9378C57.0544 42.1701 57.05 42.4041 57.0457 42.6396C55.301 42.6396 53.1132 43.1303 50.7851 43.8327C50.572 39.251 49.4003 35.3519 43.2679 37.0935C39.9136 38.991 39.9054 40.9439 39.9054 46.4318C39.9054 46.8385 39.9165 47.2387 39.9386 47.6311Z" fill="white"/>
<rect x="39.9062" y="44.5938" width="4" height="8" fill="black"/>
</svg>
