<svg width="712" height="163" viewBox="0 0 712 163" fill="none" xmlns="http://www.w3.org/2000/svg">
<path d="M64 55.9985V34H2V68.9976L24 69.0976V89.9962H64V71.9974H36V55.9985H64Z" stroke="black" stroke-width="4"/>
<path d="M64 127.994V109.995H44V93.9959H20V73.0973H2V127.994H64Z" stroke="black" stroke-width="4"/>
<rect x="2" y="73.2031" width="18.2" height="54.7963" fill="black"/>
<rect x="19.4062" y="94.2031" width="23.8" height="33.7977" fill="black"/>
<rect x="41.1875" y="109.391" width="22.2" height="18.5987" fill="black"/>
<path d="M81.4308 131V57.3636H103.723V70.8828H104.538C106.072 66.4084 108.661 62.8768 112.304 60.288C115.948 57.6992 120.294 56.4048 125.344 56.4048C130.458 56.4048 134.836 57.7152 138.48 60.3359C142.123 62.9567 144.44 66.4723 145.431 70.8828H146.198C147.572 66.5043 150.257 63.0046 154.252 60.3839C158.247 57.7312 162.961 56.4048 168.395 56.4048C175.362 56.4048 181.019 58.642 185.365 63.1165C189.712 67.5589 191.885 73.6634 191.885 81.4297V131H168.442V86.799C168.442 83.1236 167.5 80.3271 165.614 78.4094C163.728 76.4599 161.283 75.4851 158.279 75.4851C155.051 75.4851 152.51 76.5398 150.657 78.6491C148.835 80.7266 147.924 83.5231 147.924 87.0387V131H125.392V86.5593C125.392 83.1396 124.465 80.4389 122.612 78.4574C120.758 76.4759 118.313 75.4851 115.277 75.4851C113.231 75.4851 111.425 75.9805 109.859 76.9712C108.293 77.93 107.063 79.3043 106.168 81.0941C105.305 82.8839 104.874 84.9933 104.874 87.4222V131H81.4308ZM206.411 158.614V57.3636H229.614V69.9719H230.333C231.292 67.7347 232.651 65.5774 234.408 63.5C236.198 61.4226 238.467 59.7287 241.216 58.4183C243.996 57.076 247.32 56.4048 251.188 56.4048C256.301 56.4048 261.079 57.7472 265.522 60.4318C269.996 63.1165 273.608 67.2553 276.356 72.8484C279.105 78.4414 280.479 85.5685 280.479 94.2298C280.479 102.571 279.153 109.555 276.5 115.18C273.879 120.805 270.332 125.023 265.857 127.836C261.415 130.648 256.477 132.055 251.044 132.055C247.336 132.055 244.124 131.447 241.408 130.233C238.691 129.018 236.406 127.42 234.552 125.439C232.73 123.457 231.324 121.332 230.333 119.063H229.854V158.614H206.411ZM229.375 94.1818C229.375 98.1449 229.902 101.597 230.957 104.537C232.043 107.477 233.593 109.762 235.607 111.392C237.652 112.99 240.097 113.789 242.942 113.789C245.818 113.789 248.263 112.99 250.277 111.392C252.29 109.762 253.808 107.477 254.831 104.537C255.886 101.597 256.413 98.1449 256.413 94.1818C256.413 90.2187 255.886 86.783 254.831 83.8746C253.808 80.9663 252.29 78.7131 250.277 77.1151C248.295 75.517 245.85 74.718 242.942 74.718C240.065 74.718 237.62 75.5011 235.607 77.0671C233.593 78.6332 232.043 80.8704 230.957 83.7788C229.902 86.6871 229.375 90.1548 229.375 94.1818ZM292.764 131V57.3636H315.535V70.7869H316.302C317.645 65.929 319.834 62.3175 322.87 59.9524C325.907 57.5554 329.438 56.3569 333.465 56.3569C334.552 56.3569 335.67 56.4368 336.821 56.5966C337.972 56.7244 339.042 56.9322 340.033 57.2198V77.5945C338.914 77.2109 337.444 76.9073 335.622 76.6836C333.833 76.4599 332.235 76.348 330.828 76.348C328.048 76.348 325.539 76.9712 323.302 78.2177C321.097 79.4322 319.355 81.142 318.076 83.3473C316.83 85.5206 316.207 88.0774 316.207 91.0178V131H292.764ZM380.183 132.39C372.481 132.39 365.833 130.872 360.24 127.836C354.679 124.768 350.396 120.405 347.392 114.748C344.419 109.059 342.933 102.3 342.933 94.4695C342.933 86.8629 344.435 80.2152 347.44 74.5263C350.444 68.8054 354.679 64.3629 360.144 61.1989C365.609 58.0028 372.049 56.4048 379.464 56.4048C384.705 56.4048 389.499 57.2198 393.846 58.8498C398.193 60.4798 401.948 62.8928 405.112 66.0888C408.276 69.2848 410.737 73.2319 412.495 77.93C414.253 82.5962 415.131 87.9496 415.131 93.9901V99.8388H351.131V86.2237H393.319C393.287 83.7308 392.695 81.5096 391.545 79.56C390.394 77.6104 388.812 76.0923 386.799 75.0057C384.817 73.8871 382.532 73.3278 379.943 73.3278C377.323 73.3278 374.973 73.919 372.896 75.1016C370.819 76.2521 369.173 77.8342 367.958 79.8477C366.744 81.8292 366.104 84.0824 366.041 86.6072V100.462C366.041 103.466 366.632 106.103 367.814 108.372C368.997 110.609 370.675 112.351 372.848 113.598C375.021 114.844 377.61 115.467 380.614 115.467C382.692 115.467 384.578 115.18 386.271 114.604C387.965 114.029 389.419 113.182 390.634 112.064C391.848 110.945 392.759 109.571 393.367 107.941L414.892 108.564C413.997 113.39 412.031 117.593 408.995 121.172C405.991 124.72 402.044 127.484 397.154 129.466C392.264 131.415 386.607 132.39 380.183 132.39ZM461.526 132.39C453.823 132.39 447.176 130.872 441.583 127.836C436.021 124.768 431.739 120.405 428.735 114.748C425.762 109.059 424.276 102.3 424.276 94.4695C424.276 86.8629 425.778 80.2152 428.782 74.5263C431.787 68.8054 436.021 64.3629 441.487 61.1989C446.952 58.0028 453.392 56.4048 460.807 56.4048C466.048 56.4048 470.842 57.2198 475.189 58.8498C479.535 60.4798 483.291 62.8928 486.455 66.0888C489.619 69.2848 492.08 73.2319 493.838 77.93C495.595 82.5962 496.474 87.9496 496.474 93.9901V99.8388H432.474V86.2237H474.661C474.629 83.7308 474.038 81.5096 472.888 79.56C471.737 77.6104 470.155 76.0923 468.142 75.0057C466.16 73.8871 463.875 73.3278 461.286 73.3278C458.665 73.3278 456.316 73.919 454.239 75.1016C452.161 76.2521 450.515 77.8342 449.301 79.8477C448.086 81.8292 447.447 84.0824 447.383 86.6072V100.462C447.383 103.466 447.975 106.103 449.157 108.372C450.34 110.609 452.018 112.351 454.191 113.598C456.364 114.844 458.953 115.467 461.957 115.467C464.035 115.467 465.92 115.18 467.614 114.604C469.308 114.029 470.762 113.182 471.977 112.064C473.191 110.945 474.102 109.571 474.709 107.941L496.235 108.564C495.34 113.39 493.374 117.593 490.338 121.172C487.334 124.72 483.387 127.484 478.497 129.466C473.607 131.415 467.95 132.39 461.526 132.39ZM531.89 89.0043V131H508.447V57.3636H530.74V70.8828H531.555C533.185 66.3764 535.965 62.8448 539.896 60.288C543.827 57.6992 548.51 56.4048 553.943 56.4048C559.12 56.4048 563.611 57.5714 567.414 59.9045C571.249 62.2056 574.222 65.4336 576.331 69.5884C578.472 73.7113 579.527 78.5373 579.495 84.0664V131H556.052V88.6687C556.084 84.5778 555.045 81.3817 552.936 79.0806C550.859 76.7795 547.966 75.6289 544.259 75.6289C541.798 75.6289 539.625 76.1722 537.739 77.2589C535.885 78.3136 534.447 79.8317 533.424 81.8132C532.434 83.7947 531.922 86.1918 531.89 89.0043ZM620.903 132.055C615.47 132.055 610.532 130.648 606.09 127.836C601.647 125.023 598.1 120.805 595.447 115.18C592.794 109.555 591.468 102.571 591.468 94.2298C591.468 85.5685 592.842 78.4414 595.591 72.8484C598.339 67.2553 601.935 63.1165 606.377 60.4318C610.852 57.7472 615.662 56.4048 620.808 56.4048C624.675 56.4048 627.983 57.076 630.731 58.4183C633.48 59.7287 635.749 61.4226 637.539 63.5C639.328 65.5774 640.687 67.7347 641.614 69.9719H642.093V32.8182H665.536V131H642.333V119.063H641.614C640.623 121.332 639.217 123.457 637.395 125.439C635.573 127.42 633.288 129.018 630.539 130.233C627.823 131.447 624.611 132.055 620.903 132.055ZM629.053 113.789C631.898 113.789 634.327 112.99 636.34 111.392C638.354 109.762 639.904 107.477 640.99 104.537C642.077 101.597 642.62 98.1449 642.62 94.1818C642.62 90.1548 642.077 86.6871 640.99 83.7788C639.936 80.8704 638.386 78.6332 636.34 77.0671C634.327 75.5011 631.898 74.718 629.053 74.718C626.145 74.718 623.684 75.517 621.67 77.1151C619.657 78.7131 618.123 80.9663 617.068 83.8746C616.045 86.783 615.534 90.2187 615.534 94.1818C615.534 98.1449 616.061 101.597 617.116 104.537C618.171 107.477 619.689 109.762 621.67 111.392C623.684 112.99 626.145 113.789 629.053 113.789ZM680.361 131V57.3636H703.804V131H680.361ZM692.107 48.7823C688.815 48.7823 685.986 47.6957 683.621 45.5224C681.256 43.3171 680.074 40.6644 680.074 37.5643C680.074 34.4961 681.256 31.8754 683.621 29.7021C685.986 27.4968 688.815 26.3942 692.107 26.3942C695.431 26.3942 698.259 27.4968 700.592 29.7021C702.957 31.8754 704.14 34.4961 704.14 37.5643C704.14 40.6644 702.957 43.3171 700.592 45.5224C698.259 47.6957 695.431 48.7823 692.107 48.7823Z" fill="black"/>
</svg>
