<svg width="117" height="117" viewBox="0 0 117 117" fill="none" xmlns="http://www.w3.org/2000/svg">
<path d="M63.6342 21.2108C75.3468 32.9233 75.3442 51.9155 63.6284 63.6311C51.9126 75.3468 32.9201 75.3494 21.2075 63.6369C9.49494 51.9245 9.49754 32.9323 21.2133 21.2166C32.9292 9.50098 51.9216 9.49838 63.6342 21.2108ZM27.5715 57.273C35.7704 65.4717 49.0651 65.4699 57.2662 57.269C65.4672 49.068 65.469 35.7734 57.2702 27.5747C49.0714 19.376 35.7767 19.3778 27.5756 27.5788C19.3745 35.7798 19.3727 49.0743 27.5715 57.273Z" fill="white"/>
<path d="M61.4963 65.7459L65.739 61.5033L69.9811 61.5027L61.4958 69.9879L61.4963 65.7459Z" fill="white"/>
<path d="M61.498 69.9883L69.9834 61.5031L95.4313 86.9506C97.7744 89.2937 97.7744 93.0927 95.4313 95.4358C93.0881 97.7789 89.2891 97.7789 86.9459 95.4358L61.498 69.9883Z" fill="white"/>
</svg>
